<svg xmlns="http://www.w3.org/2000/svg"  viewBox="0 0 50 50" width="50px" height="50px"><path d="M 8.7011719 3.8515625 C 8.0551719 3.8285625 7.454375 4.0551406 6.984375 4.4941406 L 2.8769531 8.3554688 C 1.9129531 9.2534687 1.8577188 10.770234 2.7617188 11.740234 L 13.529297 23.113281 C 13.721297 23.316281 13.985859 23.425781 14.255859 23.425781 C 14.368859 23.425781 14.48375 23.405234 14.59375 23.365234 C 14.96775 23.231234 15.224953 22.888187 15.251953 22.492188 L 15.400391 20.296875 L 17.429688 20.488281 C 17.777687 20.519281 18.121078 20.366984 18.330078 20.083984 C 18.538078 19.800984 18.581312 19.429469 18.445312 19.105469 L 17.503906 16.861328 L 19.849609 17.220703 C 20.273609 17.283703 20.688719 17.075266 20.886719 16.697266 C 21.084719 16.319266 21.020562 15.856875 20.726562 15.546875 L 10.365234 4.6113281 C 9.9302344 4.1433281 9.3391719 3.8745625 8.7011719 3.8515625 z M 35.679688 5 C 35.013688 5 34.373828 5.2842969 33.923828 5.7792969 L 23.46875 17.263672 C 23.45175 17.282672 23.435922 17.300313 23.419922 17.320312 L 17.21875 24.164062 C 17.03175 24.371063 16.893734 24.608375 16.802734 24.859375 C 16.517734 25.581375 16.641641 26.422953 17.181641 27.001953 L 23.251953 33.597656 L 25.064453 35.568359 C 25.091453 32.993359 26.31925 29.727125 29.90625 25.703125 L 29.888672 25.685547 L 46.644531 7.28125 C 47.008531 6.88125 47.101813 6.3045938 46.882812 5.8085938 C 46.665813 5.3175938 46.180484 5 45.646484 5 L 35.679688 5 z M 31.273438 27.171875 C 27.207438 31.759875 26.071531 35.608672 27.894531 38.638672 L 33.931641 45.197266 C 34.381641 45.681266 35.018688 45.958984 35.679688 45.958984 L 45.646484 45.958984 C 46.185484 45.958984 46.671719 45.640484 46.886719 45.146484 C 47.101719 44.652484 47.003719 44.077594 46.636719 43.683594 L 31.273438 27.171875 z M 14.855469 29.798828 L 12.380859 29.951172 C 12.123859 29.967172 11.883984 30.081531 11.708984 30.269531 L 2.7558594 39.927734 C 1.8578594 40.891734 1.9116719 42.406359 2.8886719 43.318359 L 7.1425781 47.136719 C 7.5885781 47.551719 8.1635313 47.777344 8.7695312 47.777344 C 8.7985312 47.777344 8.8274687 47.776391 8.8554688 47.775391 C 9.4934687 47.753391 10.084484 47.484625 10.521484 47.015625 L 19.966797 36.828125 C 20.104797 36.680125 20.194656 36.493969 20.222656 36.292969 L 20.595703 33.703125 C 20.643703 33.370125 20.521531 33.0365 20.269531 32.8125 C 20.020531 32.5885 19.674609 32.50675 19.349609 32.59375 L 16.003906 33.488281 L 15.916016 30.763672 C 15.907016 30.492672 15.790844 30.239641 15.589844 30.056641 C 15.389844 29.874641 15.124469 29.778828 14.855469 29.798828 z"/></svg>